<svg width="1067" height="278" viewBox="0 0 1067 278" fill="none" xmlns="http://www.w3.org/2000/svg">
<path d="M863.754 244.85C859.2 244.85 855.129 244.229 851.541 242.987V226.84C856.509 228.496 859.959 229.324 861.891 229.324C868.929 229.324 873.897 225.736 876.795 218.56L883.626 201.379L841.19 94.9795H861.063L892.32 182.542H892.734L922.75 94.9795H941.38L895.839 213.385C893.355 219.871 891.009 225.115 888.801 229.117C886.593 233.258 884.247 236.432 881.763 238.64C879.279 240.986 876.588 242.573 873.69 243.401C870.792 244.367 867.48 244.85 863.754 244.85Z" fill="#1760D7"/>
<path d="M818.745 202C814.191 202 810.327 201.655 807.153 200.965C804.117 200.275 801.633 199.102 799.701 197.446C797.769 195.79 796.389 193.513 795.561 190.615C794.733 187.717 794.319 184.06 794.319 179.644V110.505H776.102V94.9795H794.319V62.8941H811.914V94.9795H833.235V110.505H811.914V177.574C811.914 180.748 812.535 183.025 813.777 184.405C815.019 185.785 818.124 186.475 823.092 186.475H833.235V202H818.745Z" fill="#1760D7"/>
<path d="M760.23 54.2V75.7283H742.634V54.2H760.23ZM760.23 94.9795V202H742.634V94.9795H760.23Z" fill="#1760D7"/>
<path d="M714.341 54.2V202H696.746V54.2H714.341Z" fill="#1760D7"/>
<path d="M614.129 204.484C602.951 204.484 594.257 201.931 588.047 196.825C581.837 191.581 578.732 184.129 578.732 174.469C578.732 164.809 581.837 157.218 588.047 151.698C594.395 146.04 608.816 141.762 631.31 138.864C639.039 137.898 644.214 136.449 646.836 134.517C649.596 132.447 650.976 129.48 650.976 125.616C650.976 113.886 643.041 108.021 627.17 108.021C618.476 108.021 611.921 109.677 607.505 112.989C603.227 116.163 600.881 121.269 600.467 128.307H582.872C584.39 104.433 599.57 92.4955 628.412 92.4955C655.047 92.4955 668.364 102.087 668.364 121.269V182.956C668.364 186.958 670.227 188.959 673.953 188.959C675.471 188.959 677.265 188.614 679.335 187.924V201.586C675.747 203.518 671.538 204.484 666.708 204.484C656.772 204.484 651.804 198.964 651.804 187.924C642.42 198.964 629.861 204.484 614.129 204.484ZM618.062 188.959C622.892 188.959 627.308 188.338 631.31 187.096C635.312 185.854 638.762 184.129 641.661 181.921C644.559 179.713 646.767 177.229 648.285 174.469C649.941 171.571 650.769 168.466 650.769 165.154V146.73C649.251 147.834 647.457 148.731 645.387 149.421C643.317 150.111 640.971 150.663 638.349 151.077L620.339 153.768C612.473 154.872 606.677 156.942 602.951 159.978C599.225 163.015 597.362 167.431 597.362 173.227C597.362 178.195 599.156 182.059 602.744 184.819C606.332 187.579 611.438 188.959 618.062 188.959Z" fill="#1760D7"/>
<path d="M550.49 202C545.936 202 542.072 201.655 538.898 200.965C535.862 200.275 533.378 199.102 531.446 197.446C529.514 195.79 528.134 193.513 527.306 190.615C526.478 187.717 526.064 184.06 526.064 179.644V110.505H507.848V94.9795H526.064V62.8941H543.659V94.9795H564.98V110.505H543.659V177.574C543.659 180.748 544.28 183.025 545.522 184.405C546.764 185.785 549.869 186.475 554.837 186.475H564.98V202H550.49Z" fill="#1760D7"/>
<path d="M491.975 54.2V75.7283H474.379V54.2H491.975ZM491.975 94.9795V202H474.379V94.9795H491.975Z" fill="#1760D7"/>
<path d="M368.855 94.9795V109.47H369.269C374.789 98.1536 386.174 92.4955 403.424 92.4955C411.014 92.4955 417.846 93.8755 423.918 96.6356C429.99 99.2576 435.165 103.053 439.443 108.021C443.721 112.851 446.964 118.716 449.172 125.616C451.518 132.516 452.691 140.244 452.691 148.8C452.691 157.08 451.518 164.671 449.172 171.571C446.826 178.471 443.514 184.336 439.236 189.166C435.096 193.996 429.99 197.791 423.918 200.551C417.984 203.173 411.29 204.484 403.838 204.484C397.214 204.484 390.728 203.173 384.38 200.551C378.032 197.791 372.995 193.513 369.269 187.717H368.855V242.987H351.26V94.9795H368.855ZM401.975 188.959C412.326 188.959 420.261 185.371 425.781 178.195C431.301 171.019 434.061 160.806 434.061 147.558C434.061 141.762 433.302 136.449 431.784 131.619C430.266 126.651 428.058 122.442 425.16 118.992C422.262 115.542 418.743 112.851 414.603 110.919C410.462 108.987 405.839 108.021 400.733 108.021C390.797 108.021 382.862 111.609 376.928 118.785C371.132 125.961 368.234 135.828 368.234 148.386C368.234 160.944 371.132 170.881 376.928 178.195C382.862 185.371 391.211 188.959 401.975 188.959Z" fill="#1760D7"/>
<path d="M285.64 204.484C271.84 204.484 260.937 201.517 252.933 195.583C245.067 189.511 240.858 180.403 240.306 168.259H257.901C258.177 174.883 260.73 179.989 265.56 183.577C270.528 187.165 277.567 188.959 286.675 188.959C303.925 188.959 312.55 183.646 312.55 173.02C312.55 168.19 310.48 164.464 306.34 161.842C304.132 160.461 300.82 159.081 296.404 157.701C291.988 156.183 286.261 154.734 279.223 153.354C266.112 150.594 256.728 146.937 251.07 142.383C245.412 137.691 242.583 131.205 242.583 122.925C242.583 118.371 243.48 114.231 245.274 110.505C247.206 106.779 249.897 103.605 253.347 100.983C256.935 98.2226 261.144 96.1526 265.974 94.7725C270.942 93.2545 276.532 92.4955 282.742 92.4955C297.37 92.4955 308.134 95.3245 315.034 100.983C321.934 106.503 325.729 114.852 326.419 126.03H308.824V125.823C308.272 120.027 305.719 115.611 301.165 112.575C296.749 109.539 291.022 108.021 283.984 108.021C276.946 108.021 271.357 109.194 267.216 111.54C263.214 113.886 261.213 117.267 261.213 121.683C261.213 125.685 262.938 128.928 266.388 131.412C269.976 133.758 275.497 135.759 282.949 137.415L299.509 141.141C309.859 143.487 317.725 146.937 323.107 151.491C328.489 156.045 331.18 162.463 331.18 170.743C331.18 181.507 327.109 189.856 318.967 195.79C310.963 201.586 299.854 204.484 285.64 204.484Z" fill="#1760D7"/>
<path d="M174.434 204.484C166.568 204.484 159.392 203.173 152.906 200.551C146.557 197.929 141.106 194.203 136.552 189.373C132.136 184.405 128.686 178.471 126.202 171.571C123.718 164.671 122.476 157.011 122.476 148.593C122.476 140.037 123.649 132.309 125.995 125.409C128.479 118.509 131.929 112.644 136.345 107.814C140.899 102.846 146.35 99.0506 152.699 96.4286C159.185 93.8065 166.43 92.4955 174.434 92.4955C182.438 92.4955 189.614 93.8755 195.962 96.6356C202.448 99.2576 207.899 102.984 212.315 107.814C216.869 112.644 220.319 118.509 222.665 125.409C225.15 132.309 226.392 140.037 226.392 148.593C226.392 156.735 225.15 164.257 222.665 171.157C220.319 177.919 216.869 183.784 212.315 188.752C207.899 193.72 202.448 197.584 195.962 200.344C189.614 203.104 182.438 204.484 174.434 204.484ZM174.434 188.959C179.264 188.959 183.68 187.993 187.682 186.061C191.822 184.129 195.341 181.438 198.239 177.988C201.275 174.4 203.621 170.122 205.277 165.154C206.933 160.185 207.761 154.665 207.761 148.593C207.761 142.521 206.933 137.001 205.277 132.033C203.621 127.065 201.344 122.856 198.446 119.406C195.548 115.818 192.029 113.058 187.889 111.126C183.749 109.056 179.195 108.021 174.227 108.021C169.535 108.021 165.119 109.056 160.979 111.126C156.977 113.058 153.458 115.818 150.421 119.406C147.523 122.994 145.246 127.272 143.59 132.24C141.934 137.208 141.106 142.659 141.106 148.593C141.106 154.527 141.934 159.978 143.59 164.947C145.246 169.915 147.523 174.193 150.421 177.781C153.32 181.369 156.77 184.129 160.772 186.061C164.912 187.993 169.466 188.959 174.434 188.959Z" fill="#1760D7"/>
<path d="M30.8433 54.2V110.712H31.2573C33.7413 104.916 38.0884 100.431 44.2985 97.2566C50.5086 94.0825 57.4087 92.4955 64.9988 92.4955C89.5631 92.4955 101.845 105.261 101.845 130.791V202H84.2501V128.928C84.2501 122.994 82.387 118.026 78.661 114.024C74.9349 110.022 69.4839 108.021 62.3078 108.021C52.3716 108.021 44.6435 111.057 39.1234 117.129C33.6033 123.063 30.8433 130.998 30.8433 140.934V202H13.248V54.2H30.8433Z" fill="#1760D7"/>
<path fill-rule="evenodd" clip-rule="evenodd" d="M987 95C972.088 95 960 107.088 960 122V175C960 189.912 972.088 202 987 202H1040C1054.91 202 1067 189.912 1067 175V122C1067 107.088 1054.91 95 1040 95H987ZM996.259 128.841V168.5H1004.98V152.58H1021.07V168.5H1029.8V128.841H1021.07V144.535H1004.98V128.841H996.259Z" fill="#1760D7"/>
<path d="M595.563 264.597C584.967 264.597 577.853 256.289 577.853 246.688V246.588C577.853 236.987 585.066 228.58 595.662 228.58C606.258 228.58 613.372 236.888 613.372 246.489V246.588C613.372 256.19 606.159 264.597 595.563 264.597ZM595.662 260.965C603.622 260.965 609.293 254.598 609.293 246.688V246.588C609.293 238.679 603.522 232.212 595.563 232.212C587.603 232.212 581.932 238.579 581.932 246.489V246.588C581.932 254.498 587.703 260.965 595.662 260.965Z" fill="#1760D7"/>
<path d="M558.317 264V232.809H546.577V229.177H573.987V232.809H562.247V264H558.317Z" fill="#1760D7"/>
<path d="M527.763 264.597C517.714 264.597 510.302 256.687 510.302 246.688V246.588C510.302 236.739 517.714 228.58 527.912 228.58C534.23 228.58 538.061 230.769 541.493 234.102L538.807 236.987C535.822 234.201 532.638 232.212 527.863 232.212C520.152 232.212 514.381 238.48 514.381 246.489V246.588C514.381 254.647 520.152 260.965 527.863 260.965C532.638 260.965 535.772 259.125 539.106 255.941L541.692 258.478C538.111 262.159 534.031 264.597 527.763 264.597Z" fill="#1760D7"/>
<path d="M471.1 264L486.97 228.928H490.651L506.52 264H502.292L498.212 254.797H479.259L475.13 264H471.1ZM480.801 251.265H496.67L488.76 233.505L480.801 251.265Z" fill="#1760D7"/>
<path d="M444.925 264V229.177H469.948V232.809H448.855V245.245H467.709V248.827H448.855V264H444.925Z" fill="#1760D7"/>
<path d="M626.36 246.536C621.334 246.536 617.436 242.484 617.436 237.612V237.56C617.436 232.688 621.385 228.585 626.36 228.585C631.386 228.585 635.284 232.637 635.284 237.509V237.56C635.284 242.433 631.335 246.536 626.36 246.536ZM626.36 245.562C630.822 245.562 634.259 241.92 634.259 237.56V237.509C634.259 233.201 630.874 229.559 626.36 229.559C621.898 229.559 618.462 233.201 618.462 237.56V237.612C618.462 241.92 621.847 245.562 626.36 245.562ZM622.873 241.92V232.842H626.976C628.976 232.842 630.463 233.816 630.463 235.714V235.765C630.463 237.15 629.591 238.125 628.36 238.484L630.771 241.92H628.668L626.514 238.791H624.616V241.92H622.873ZM624.616 237.355H626.822C628.001 237.355 628.668 236.74 628.668 235.868V235.817C628.668 234.945 628.001 234.329 626.822 234.381H624.616V237.355Z" fill="#1760D7"/>
</svg>
